<?xml version="1.0" encoding="UTF-8" standalone="no"?>
<!DOCTYPE score-partwise PUBLIC "-//Recordare//DTD MusicXML 1.0 Partwise//EN" "http://www.musicxml.org/dtds/partwise.dtd">
<score-partwise>
	<work>
		<work-number></work-number>
		<work-title></work-title>
	</work>
	<movement-number></movement-number>
	<movement-title></movement-title>
	<identification>
		<creator type="composer"></creator>
		<creator type="poet"></creator>
		<rights></rights>
		<encoding>
			<encoding-date></encoding-date>
			<encoder></encoder>
			<software>Neuratron PhotoScore</software>
			<encoding-description>MusicXML 1.0 file</encoding-description>
		</encoding>
		<source>Scanned sheet music</source>
	</identification>
	<part-list>
		<score-part id="P1">
			<part-name></part-name>
			<part-abbreviation></part-abbreviation>
			<score-instrument id="P1-I1">
				<instrument-name>Hi Timbale</instrument-name>
			</score-instrument>
			<score-instrument id="P1-I2">
				<instrument-name>High Agogo</instrument-name>
			</score-instrument>
			<score-instrument id="P1-I3">
				<instrument-name>Cabasa</instrument-name>
			</score-instrument>
			<score-instrument id="P1-I4">
				<instrument-name>Short Whistle</instrument-name>
			</score-instrument>
			<score-instrument id="P1-I5">
				<instrument-name>Long Whistle</instrument-name>
			</score-instrument>
			<score-instrument id="P1-I6">
				<instrument-name>Long Guiro</instrument-name>
			</score-instrument>
			<score-instrument id="P1-I7">
				<instrument-name>Hi Wood Block</instrument-name>
			</score-instrument>
			<score-instrument id="P1-I8">
				<instrument-name>Low Wood Block</instrument-name>
			</score-instrument>
			<score-instrument id="P1-I9">
				<instrument-name>Open Cuica</instrument-name>
			</score-instrument>
			<score-instrument id="P1-I10">
				<instrument-name>Open Triangle</instrument-name>
			</score-instrument>
			<midi-instrument id="P1-I1">
				<midi-channel>10</midi-channel>
				<midi-program>1</midi-program>
				<midi-unpitched>65</midi-unpitched>
			</midi-instrument>
			<midi-instrument id="P1-I2">
				<midi-channel>10</midi-channel>
				<midi-program>1</midi-program>
				<midi-unpitched>67</midi-unpitched>
			</midi-instrument>
			<midi-instrument id="P1-I3">
				<midi-channel>10</midi-channel>
				<midi-program>1</midi-program>
				<midi-unpitched>69</midi-unpitched>
			</midi-instrument>
			<midi-instrument id="P1-I4">
				<midi-channel>10</midi-channel>
				<midi-program>1</midi-program>
				<midi-unpitched>71</midi-unpitched>
			</midi-instrument>
			<midi-instrument id="P1-I5">
				<midi-channel>10</midi-channel>
				<midi-program>1</midi-program>
				<midi-unpitched>72</midi-unpitched>
			</midi-instrument>
			<midi-instrument id="P1-I6">
				<midi-channel>10</midi-channel>
				<midi-program>1</midi-program>
				<midi-unpitched>74</midi-unpitched>
			</midi-instrument>
			<midi-instrument id="P1-I7">
				<midi-channel>10</midi-channel>
				<midi-program>1</midi-program>
				<midi-unpitched>76</midi-unpitched>
			</midi-instrument>
			<midi-instrument id="P1-I8">
				<midi-channel>10</midi-channel>
				<midi-program>1</midi-program>
				<midi-unpitched>77</midi-unpitched>
			</midi-instrument>
			<midi-instrument id="P1-I9">
				<midi-channel>10</midi-channel>
				<midi-program>1</midi-program>
				<midi-unpitched>79</midi-unpitched>
			</midi-instrument>
			<midi-instrument id="P1-I10">
				<midi-channel>10</midi-channel>
				<midi-program>1</midi-program>
				<midi-unpitched>81</midi-unpitched>
			</midi-instrument>
		</score-part>
		<score-part id="P2">
			<part-name></part-name>
			<part-abbreviation></part-abbreviation>
			<score-instrument id="P2-I1">
				<instrument-name></instrument-name>
			</score-instrument>
			<midi-instrument id="P2-I1">
				<midi-channel>1</midi-channel>
				<midi-program>1</midi-program>
			</midi-instrument>
		</score-part>
		<score-part id="P3">
			<part-name></part-name>
			<part-abbreviation></part-abbreviation>
			<score-instrument id="P3-I1">
				<instrument-name></instrument-name>
			</score-instrument>
			<midi-instrument id="P3-I1">
				<midi-channel>2</midi-channel>
				<midi-program>1</midi-program>
			</midi-instrument>
		</score-part>
		<score-part id="P4">
			<part-name></part-name>
			<part-abbreviation></part-abbreviation>
			<score-instrument id="P4-I1">
				<instrument-name></instrument-name>
			</score-instrument>
			<midi-instrument id="P4-I1">
				<midi-channel>3</midi-channel>
				<midi-program>1</midi-program>
			</midi-instrument>
		</score-part>
	</part-list>
	<part id="P1">
		<measure number="1">
			<attributes>
				<divisions>2</divisions>
				<clef>
					<sign>Percussion</sign>
				</clef>
				<staff-details>
					<staff-lines>2</staff-lines>
				</staff-details>
			</attributes>
			<note>
				<rest/>
				<duration>8</duration>
				<voice>1</voice>
				<type>whole</type>
			</note>
			<barline location="right">
			</barline>
		</measure>
		<measure number="2">
			<print new-system="yes"/>
			<note>
				<rest/>
				<duration>8</duration>
				<voice>1</voice>
				<type>whole</type>
			</note>
			<barline location="right">
			</barline>
		</measure>
		<measure number="3">
			<print new-system="yes"/>
			<attributes>
				<clef>
					<sign>C</sign>
					<line>1</line>
				</clef>
			</attributes>
			<note>
				<rest/>
				<duration>1</duration>
				<voice>1</voice>
				<type>eighth</type>
			</note>
			<note>
				<rest/>
				<duration>2</duration>
				<voice>1</voice>
				<type>quarter</type>
			</note>
			<note>
				<rest/>
				<duration>4</duration>
				<voice>1</voice>
				<type>half</type>
			</note>
			<note>
				<rest/>
				<duration>1</duration>
				<voice>1</voice>
				<type>eighth</type>
			</note>
			<barline location="right">
			</barline>
		</measure>
		<measure number="4">
			<print new-system="yes"/>
			<note>
				<pitch>
					<step>F</step>
					<octave>5</octave>
				</pitch>
				<duration>2</duration>
				<instrument id="P1-I10"/>
				<voice>1</voice>
				<type>quarter</type>
				<stem>down</stem>
			</note>
			<note>
				<rest/>
				<duration>4</duration>
				<voice>1</voice>
				<type>half</type>
			</note>
			<note>
				<pitch>
					<step>F</step>
					<octave>5</octave>
				</pitch>
				<duration>2</duration>
				<instrument id="P1-I10"/>
				<voice>1</voice>
				<type>quarter</type>
				<stem>up</stem>
			</note>
			<barline location="right">
			</barline>
		</measure>
		<measure number="5">
			<print new-system="yes"/>
			<note>
				<pitch>
					<step>D</step>
					<octave>5</octave>
				</pitch>
				<duration>2</duration>
				<instrument id="P1-I8"/>
				<voice>1</voice>
				<type>quarter</type>
				<stem>down</stem>
			</note>
			<note>
				<rest/>
				<duration>2</duration>
				<voice>1</voice>
				<type>quarter</type>
			</note>
			<note>
				<rest/>
				<duration>2</duration>
				<voice>1</voice>
				<type>quarter</type>
			</note>
			<note>
				<rest/>
				<duration>2</duration>
				<voice>1</voice>
				<type>quarter</type>
			</note>
			<barline location="right">
			</barline>
		</measure>
		<measure number="6">
			<print new-system="yes"/>
			<note>
				<pitch>
					<step>B</step>
					<octave>4</octave>
				</pitch>
				<duration>8</duration>
				<instrument id="P1-I6"/>
				<voice>1</voice>
				<type>whole</type>
				<stem>up</stem>
			</note>
			<barline location="right">
			</barline>
		</measure>
		<measure number="7">
			<print new-system="yes"/>
			<note>
				<rest/>
				<duration>2</duration>
				<voice>1</voice>
				<type>quarter</type>
			</note>
			<note>
				<rest/>
				<duration>2</duration>
				<voice>1</voice>
				<type>quarter</type>
			</note>
			<note>
				<rest/>
				<duration>2</duration>
				<voice>1</voice>
				<type>quarter</type>
			</note>
			<note>
				<rest/>
				<duration>2</duration>
				<voice>1</voice>
				<type>quarter</type>
			</note>
			<barline location="right">
			</barline>
		</measure>
		<measure number="8">
			<print new-system="yes"/>
			<note>
				<rest/>
				<duration>1</duration>
				<voice>1</voice>
				<type>eighth</type>
			</note>
			<note>
				<rest/>
				<duration>1</duration>
				<voice>1</voice>
				<type>eighth</type>
			</note>
			<note>
				<rest/>
				<duration>2</duration>
				<voice>1</voice>
				<type>quarter</type>
			</note>
			<note>
				<rest/>
				<duration>2</duration>
				<voice>1</voice>
				<type>quarter</type>
			</note>
			<note>
				<rest/>
				<duration>2</duration>
				<voice>1</voice>
				<type>quarter</type>
			</note>
			<barline location="right">
			</barline>
		</measure>
		<measure number="9">
			<print new-system="yes"/>
			<note>
				<pitch>
					<step>D</step>
					<octave>5</octave>
				</pitch>
				<duration>8</duration>
				<instrument id="P1-I8"/>
				<voice>1</voice>
				<type>whole</type>
				<stem>up</stem>
			</note>
			<barline location="right">
			</barline>
		</measure>
		<measure number="10">
			<print new-system="yes"/>
			<note>
				<pitch>
					<step>E</step>
					<octave>5</octave>
				</pitch>
				<duration>3</duration>
				<instrument id="P1-I9"/>
				<voice>2</voice>
				<type>quarter</type>
				<dot/>
				<stem>down</stem>
			</note>
			<note>
				<pitch>
					<step>D</step>
					<octave>5</octave>
				</pitch>
				<duration>2</duration>
				<instrument id="P1-I8"/>
				<voice>2</voice>
				<type>quarter</type>
				<stem>down</stem>
			</note>
			<note>
				<pitch>
					<step>C</step>
					<octave>5</octave>
				</pitch>
				<duration>2</duration>
				<instrument id="P1-I7"/>
				<voice>2</voice>
				<type>quarter</type>
				<stem>down</stem>
			</note>
			<note>
				<rest/>
				<duration>1</duration>
				<voice>2</voice>
				<type>eighth</type>
			</note>
			<barline location="right">
			</barline>
		</measure>
		<measure number="11">
			<print new-system="yes"/>
			<note>
				<pitch>
					<step>D</step>
					<alter>2</alter>
					<octave>4</octave>
				</pitch>
				<duration>2</duration>
				<instrument id="P1-I1"/>
				<voice>1</voice>
				<type>quarter</type>
				<accidental>double-sharp</accidental>
				<stem>up</stem>
			</note>
			<note>
				<pitch>
					<step>G</step>
					<octave>4</octave>
				</pitch>
				<duration>2</duration>
				<instrument id="P1-I4"/>
				<voice>1</voice>
				<type>quarter</type>
				<stem>down</stem>
			</note>
			<note>
				<pitch>
					<step>F</step>
					<octave>4</octave>
				</pitch>
				<duration>4</duration>
				<instrument id="P1-I3"/>
				<voice>1</voice>
				<type>half</type>
				<stem>up</stem>
			</note>
			<barline location="right">
			</barline>
		</measure>
		<measure number="12">
			<print new-system="yes"/>
			<note>
				<pitch>
					<step>F</step>
					<alter>2</alter>
					<octave>4</octave>
				</pitch>
				<duration>2</duration>
				<instrument id="P1-I3"/>
				<voice>1</voice>
				<type>quarter</type>
				<accidental>double-sharp</accidental>
				<stem>up</stem>
			</note>
			<note>
				<pitch>
					<step>E</step>
					<octave>4</octave>
				</pitch>
				<duration>2</duration>
				<instrument id="P1-I2"/>
				<voice>1</voice>
				<type>quarter</type>
				<stem>up</stem>
			</note>
			<note>
				<pitch>
					<step>D</step>
					<alter>2</alter>
					<octave>4</octave>
				</pitch>
				<duration>2</duration>
				<instrument id="P1-I1"/>
				<voice>1</voice>
				<type>quarter</type>
				<accidental>double-sharp</accidental>
				<stem>up</stem>
			</note>
			<note>
				<pitch>
					<step>G</step>
					<alter>1</alter>
					<octave>4</octave>
				</pitch>
				<duration>2</duration>
				<instrument id="P1-I4"/>
				<voice>1</voice>
				<type>quarter</type>
				<accidental>sharp</accidental>
				<stem>up</stem>
			</note>
		</measure>
		<measure number="13">
			<note>
				<pitch>
					<step>D</step>
					<octave>4</octave>
				</pitch>
				<duration>4</duration>
				<instrument id="P1-I1"/>
				<voice>1</voice>
				<type>half</type>
				<stem>up</stem>
			</note>
			<note>
				<rest/>
				<duration>2</duration>
				<voice>1</voice>
				<type>quarter</type>
			</note>
			<note>
				<rest/>
				<duration>2</duration>
				<voice>1</voice>
				<type>quarter</type>
			</note>
		</measure>
		<measure number="14">
			<note>
				<pitch>
					<step>A</step>
					<octave>4</octave>
				</pitch>
				<duration>2</duration>
				<instrument id="P1-I5"/>
				<voice>1</voice>
				<type>quarter</type>
				<stem>down</stem>
			</note>
			<note>
				<rest/>
				<duration>4</duration>
				<voice>1</voice>
				<type>half</type>
			</note>
			<note>
				<pitch>
					<step>G</step>
					<octave>4</octave>
				</pitch>
				<duration>2</duration>
				<instrument id="P1-I4"/>
				<voice>1</voice>
				<type>quarter</type>
				<stem>down</stem>
			</note>
			<barline location="right">
			</barline>
		</measure>
		<measure number="15">
			<print new-system="yes"/>
			<note>
				<pitch>
					<step>B</step>
					<octave>4</octave>
				</pitch>
				<duration>2</duration>
				<instrument id="P1-I6"/>
				<voice>2</voice>
				<type>quarter</type>
				<stem>down</stem>
			</note>
			<note>
				<rest/>
				<duration>4</duration>
				<voice>1</voice>
				<type>half</type>
			</note>
			<note>
				<pitch>
					<step>F</step>
					<octave>4</octave>
				</pitch>
				<duration>2</duration>
				<instrument id="P1-I3"/>
				<voice>2</voice>
				<type>quarter</type>
				<stem>down</stem>
			</note>
			<barline location="right">
			</barline>
		</measure>
		<measure number="16">
			<note>
				<pitch>
					<step>F</step>
					<octave>4</octave>
				</pitch>
				<duration>1</duration>
				<instrument id="P1-I3"/>
				<voice>2</voice>
				<type>eighth</type>
				<stem>down</stem>
			</note>
			<note>
				<pitch>
					<step>F</step>
					<octave>4</octave>
				</pitch>
				<duration>2</duration>
				<instrument id="P1-I3"/>
				<voice>1</voice>
				<type>quarter</type>
				<stem>up</stem>
			</note>
			<note>
				<pitch>
					<step>G</step>
					<octave>4</octave>
				</pitch>
				<duration>4</duration>
				<instrument id="P1-I4"/>
				<voice>2</voice>
				<type>half</type>
				<stem>down</stem>
			</note>
			<note>
				<rest/>
				<duration>1</duration>
				<voice>2</voice>
				<type>eighth</type>
			</note>
			<barline location="right">
				<bar-style>light-light</bar-style>
			</barline>
		</measure>
	</part>
	<part id="P2">
		<measure number="1">
			<note>
				<rest/>
				<duration>8</duration>
				<type>whole</type>
			</note>
			<barline location="right">
			</barline>
		</measure>
		<measure number="2">
			<print new-system="yes"/>
			<attributes>
				<divisions>2</divisions>
				<clef>
					<sign>G</sign>
					<line>2</line>
				</clef>
			</attributes>
			<note>
				<pitch>
					<step>C</step>
					<octave>5</octave>
				</pitch>
				<duration>2</duration>
				<voice>1</voice>
				<type>quarter</type>
				<stem>down</stem>
			</note>
			<note>
				<pitch>
					<step>E</step>
					<octave>5</octave>
				</pitch>
				<duration>2</duration>
				<voice>1</voice>
				<type>quarter</type>
				<stem>up</stem>
			</note>
			<note>
				<pitch>
					<step>E</step>
					<octave>5</octave>
				</pitch>
				<duration>1</duration>
				<voice>1</voice>
				<type>eighth</type>
				<stem>up</stem>
			</note>
			<note>
				<rest/>
				<duration>1</duration>
				<voice>1</voice>
				<type>eighth</type>
			</note>
			<note>
				<rest/>
				<duration>1</duration>
				<voice>1</voice>
				<type>eighth</type>
			</note>
			<note>
				<rest/>
				<duration>1</duration>
				<voice>1</voice>
				<type>eighth</type>
			</note>
			<barline location="right">
			</barline>
		</measure>
		<measure number="3">
			<print new-system="yes"/>
			<note>
				<pitch>
					<step>D</step>
					<octave>5</octave>
				</pitch>
				<duration>2</duration>
				<voice>1</voice>
				<type>quarter</type>
				<stem>down</stem>
			</note>
			<note>
				<pitch>
					<step>C</step>
					<octave>5</octave>
				</pitch>
				<duration>2</duration>
				<voice>1</voice>
				<type>quarter</type>
				<stem>up</stem>
			</note>
			<note>
				<rest/>
				<duration>2</duration>
				<voice>1</voice>
				<type>quarter</type>
			</note>
			<note>
				<rest/>
				<duration>1</duration>
				<voice>1</voice>
				<type>eighth</type>
			</note>
			<note>
				<rest/>
				<duration>1</duration>
				<voice>1</voice>
				<type>eighth</type>
			</note>
			<barline location="right">
			</barline>
		</measure>
		<measure number="4">
			<print new-system="yes"/>
			<note>
				<pitch>
					<step>G</step>
					<alter>-1</alter>
					<octave>4</octave>
				</pitch>
				<duration>8</duration>
				<voice>1</voice>
				<type>whole</type>
				<accidental>flat</accidental>
				<stem>up</stem>
			</note>
			<barline location="right">
			</barline>
		</measure>
		<measure number="5">
			<print new-system="yes"/>
			<note>
				<pitch>
					<step>D</step>
					<octave>5</octave>
				</pitch>
				<duration>2</duration>
				<voice>2</voice>
				<type>quarter</type>
				<stem>down</stem>
			</note>
			<note>
				<pitch>
					<step>D</step>
					<octave>5</octave>
				</pitch>
				<duration>2</duration>
				<voice>1</voice>
				<type>quarter</type>
				<stem>up</stem>
			</note>
			<note>
				<pitch>
					<step>D</step>
					<octave>5</octave>
				</pitch>
				<duration>2</duration>
				<voice>2</voice>
				<type>quarter</type>
				<stem>down</stem>
			</note>
			<note>
				<pitch>
					<step>E</step>
					<octave>5</octave>
				</pitch>
				<duration>2</duration>
				<voice>2</voice>
				<type>quarter</type>
				<stem>down</stem>
			</note>
			<barline location="right">
			</barline>
		</measure>
		<measure number="6">
			<print new-system="yes"/>
			<note>
				<pitch>
					<step>E</step>
					<octave>5</octave>
				</pitch>
				<duration>8</duration>
				<voice>2</voice>
				<type>whole</type>
				<stem>up</stem>
			</note>
			<backup>
				<duration>8</duration>
			</backup>
			<note>
				<pitch>
					<step>B</step>
					<octave>5</octave>
				</pitch>
				<duration>1</duration>
				<voice>2</voice>
				<type>eighth</type>
				<stem>down</stem>
			</note>
			<note>
				<rest/>
				<duration>4</duration>
				<voice>1</voice>
				<type>half</type>
			</note>
			<note>
				<rest/>
				<duration>1</duration>
				<voice>1</voice>
				<type>eighth</type>
			</note>
			<note>
				<rest/>
				<duration>2</duration>
				<voice>1</voice>
				<type>quarter</type>
			</note>
			<barline location="right">
			</barline>
		</measure>
		<measure number="7">
			<print new-system="yes"/>
			<note>
				<rest/>
				<duration>2</duration>
				<voice>1</voice>
				<type>quarter</type>
			</note>
			<note>
				<rest/>
				<duration>2</duration>
				<voice>1</voice>
				<type>quarter</type>
			</note>
			<note>
				<rest/>
				<duration>2</duration>
				<voice>1</voice>
				<type>quarter</type>
			</note>
			<note>
				<rest/>
				<duration>2</duration>
				<voice>1</voice>
				<type>quarter</type>
			</note>
			<barline location="right">
			</barline>
		</measure>
		<measure number="8">
			<print new-system="yes"/>
			<note>
				<pitch>
					<step>A</step>
					<octave>4</octave>
				</pitch>
				<duration>8</duration>
				<voice>1</voice>
				<type>whole</type>
				<stem>up</stem>
			</note>
			<barline location="right">
			</barline>
		</measure>
		<measure number="9">
			<print new-system="yes"/>
			<note>
				<pitch>
					<step>E</step>
					<octave>5</octave>
				</pitch>
				<duration>4</duration>
				<voice>1</voice>
				<type>half</type>
				<stem>down</stem>
			</note>
			<note>
				<pitch>
					<step>E</step>
					<octave>5</octave>
				</pitch>
				<duration>3</duration>
				<voice>1</voice>
				<type>quarter</type>
				<dot/>
				<stem>down</stem>
			</note>
			<note>
				<rest/>
				<duration>1</duration>
				<voice>1</voice>
				<type>eighth</type>
			</note>
			<barline location="right">
			</barline>
		</measure>
		<measure number="10">
			<print new-system="yes"/>
			<note>
				<pitch>
					<step>B</step>
					<octave>4</octave>
				</pitch>
				<duration>2</duration>
				<voice>1</voice>
				<type>quarter</type>
				<stem>down</stem>
			</note>
			<note>
				<pitch>
					<step>B</step>
					<octave>4</octave>
				</pitch>
				<duration>2</duration>
				<voice>1</voice>
				<type>quarter</type>
				<stem>down</stem>
			</note>
			<note>
				<rest/>
				<duration>2</duration>
				<voice>1</voice>
				<type>quarter</type>
			</note>
			<note>
				<pitch>
					<step>G</step>
					<alter>-1</alter>
					<octave>4</octave>
				</pitch>
				<duration>2</duration>
				<voice>1</voice>
				<type>quarter</type>
				<stem>up</stem>
			</note>
			<barline location="right">
			</barline>
		</measure>
		<measure number="11">
			<print new-system="yes"/>
			<note>
				<rest/>
				<duration>8</duration>
				<voice>1</voice>
				<type>whole</type>
			</note>
			<barline location="right">
			</barline>
		</measure>
		<measure number="12">
			<print new-system="yes"/>
			<note>
				<rest/>
				<duration>1</duration>
				<voice>1</voice>
				<type>eighth</type>
			</note>
			<note>
				<rest/>
				<duration>4</duration>
				<voice>1</voice>
				<type>half</type>
			</note>
			<note>
				<pitch>
					<step>C</step>
					<octave>5</octave>
				</pitch>
				<duration>2</duration>
				<voice>1</voice>
				<type>quarter</type>
				<stem>down</stem>
			</note>
			<note>
				<rest/>
				<duration>1</duration>
				<voice>1</voice>
				<type>eighth</type>
			</note>
		</measure>
		<measure number="13">
			<note>
				<rest/>
				<duration>8</duration>
				<voice>1</voice>
				<type>whole</type>
			</note>
		</measure>
		<measure number="14">
			<note>
				<pitch>
					<step>E</step>
					<octave>5</octave>
				</pitch>
				<duration>2</duration>
				<voice>1</voice>
				<type>quarter</type>
				<stem>down</stem>
			</note>
			<note>
				<pitch>
					<step>C</step>
					<octave>5</octave>
				</pitch>
				<duration>2</duration>
				<voice>1</voice>
				<type>quarter</type>
				<stem>down</stem>
			</note>
			<note>
				<pitch>
					<step>F</step>
					<octave>5</octave>
				</pitch>
				<duration>2</duration>
				<voice>1</voice>
				<type>quarter</type>
				<stem>down</stem>
			</note>
			<note>
				<rest/>
				<duration>2</duration>
				<voice>1</voice>
				<type>quarter</type>
			</note>
			<barline location="right">
			</barline>
		</measure>
		<measure number="15">
			<print new-system="yes"/>
			<note>
				<pitch>
					<step>E</step>
					<octave>5</octave>
				</pitch>
				<duration>3</duration>
				<voice>1</voice>
				<type>quarter</type>
				<dot/>
				<stem>down</stem>
			</note>
			<note>
				<pitch>
					<step>C</step>
					<octave>5</octave>
				</pitch>
				<duration>2</duration>
				<voice>1</voice>
				<type>quarter</type>
				<stem>down</stem>
			</note>
			<note>
				<rest/>
				<duration>1</duration>
				<voice>1</voice>
				<type>eighth</type>
			</note>
			<note>
				<rest/>
				<duration>2</duration>
				<voice>1</voice>
				<type>quarter</type>
			</note>
			<barline location="right">
			</barline>
		</measure>
		<measure number="16">
			<attributes>
				<clef>
					<sign>C</sign>
					<line>3</line>
				</clef>
			</attributes>
			<note>
				<pitch>
					<step>D</step>
					<octave>4</octave>
				</pitch>
				<duration>2</duration>
				<voice>1</voice>
				<type>quarter</type>
				<stem>down</stem>
			</note>
			<note>
				<pitch>
					<step>D</step>
					<octave>4</octave>
				</pitch>
				<duration>2</duration>
				<voice>1</voice>
				<type>quarter</type>
				<stem>down</stem>
			</note>
			<note>
				<rest/>
				<duration>2</duration>
				<voice>1</voice>
				<type>quarter</type>
			</note>
			<note>
				<rest/>
				<duration>2</duration>
				<voice>1</voice>
				<type>quarter</type>
			</note>
			<barline location="right">
				<bar-style>light-light</bar-style>
			</barline>
		</measure>
	</part>
	<part id="P3">
		<measure number="1">
			<note>
				<rest/>
				<duration>16</duration>
				<type>whole</type>
			</note>
			<barline location="right">
			</barline>
		</measure>
		<measure number="2">
			<print new-system="yes"/>
			<attributes>
				<divisions>4</divisions>
				<clef>
					<sign>G</sign>
					<line>2</line>
				</clef>
			</attributes>
			<note>
				<rest/>
				<duration>8</duration>
				<voice>1</voice>
				<type>half</type>
			</note>
			<note>
				<rest/>
				<duration>4</duration>
				<voice>1</voice>
				<type>quarter</type>
			</note>
			<note>
				<rest/>
				<duration>4</duration>
				<voice>1</voice>
				<type>quarter</type>
			</note>
			<barline location="right">
			</barline>
		</measure>
		<measure number="3">
			<print new-system="yes"/>
			<attributes>
				<clef>
					<sign>C</sign>
					<line>3</line>
				</clef>
			</attributes>
			<note>
				<rest/>
				<duration>16</duration>
				<voice>1</voice>
				<type>whole</type>
			</note>
			<barline location="right">
			</barline>
		</measure>
		<measure number="4">
			<print new-system="yes"/>
			<note>
				<pitch>
					<step>D</step>
					<octave>4</octave>
				</pitch>
				<duration>16</duration>
				<voice>1</voice>
				<type>whole</type>
				<stem>up</stem>
			</note>
			<barline location="right">
			</barline>
		</measure>
		<measure number="5">
			<print new-system="yes"/>
			<note>
				<rest/>
				<duration>2</duration>
				<voice>1</voice>
				<type>eighth</type>
			</note>
			<note>
				<rest/>
				<duration>2</duration>
				<voice>1</voice>
				<type>eighth</type>
			</note>
			<note>
				<rest/>
				<duration>4</duration>
				<voice>1</voice>
				<type>quarter</type>
			</note>
			<note>
				<rest/>
				<duration>4</duration>
				<voice>1</voice>
				<type>quarter</type>
			</note>
			<note>
				<rest/>
				<duration>4</duration>
				<voice>1</voice>
				<type>quarter</type>
			</note>
			<barline location="right">
			</barline>
		</measure>
		<measure number="6">
			<print new-system="yes"/>
			<note>
				<rest/>
				<duration>16</duration>
				<voice>1</voice>
				<type>whole</type>
			</note>
			<barline location="right">
			</barline>
		</measure>
		<measure number="7">
			<print new-system="yes"/>
			<note>
				<pitch>
					<step>C</step>
					<octave>4</octave>
				</pitch>
				<duration>4</duration>
				<voice>1</voice>
				<type>quarter</type>
				<stem>down</stem>
			</note>
			<note>
				<pitch>
					<step>C</step>
					<alter>-1</alter>
					<octave>4</octave>
				</pitch>
				<duration>6</duration>
				<voice>1</voice>
				<type>quarter</type>
				<dot/>
				<accidental>flat</accidental>
				<stem>down</stem>
			</note>
			<note>
				<pitch>
					<step>B</step>
					<octave>3</octave>
				</pitch>
				<duration>4</duration>
				<voice>1</voice>
				<type>quarter</type>
				<stem>up</stem>
			</note>
			<note>
				<rest/>
				<duration>2</duration>
				<voice>1</voice>
				<type>eighth</type>
			</note>
			<barline location="right">
			</barline>
		</measure>
		<measure number="8">
			<print new-system="yes"/>
			<note>
				<pitch>
					<step>D</step>
					<octave>4</octave>
				</pitch>
				<duration>8</duration>
				<voice>2</voice>
				<type>half</type>
				<stem>down</stem>
			</note>
			<note>
				<rest/>
				<duration>4</duration>
				<voice>2</voice>
				<type>quarter</type>
			</note>
			<note>
				<rest/>
				<duration>4</duration>
				<voice>2</voice>
				<type>quarter</type>
			</note>
			<barline location="right">
			</barline>
		</measure>
		<measure number="9">
			<print new-system="yes"/>
			<note>
				<pitch>
					<step>B</step>
					<octave>3</octave>
				</pitch>
				<duration>16</duration>
				<voice>1</voice>
				<type>whole</type>
				<stem>up</stem>
			</note>
			<barline location="right">
			</barline>
		</measure>
		<measure number="10">
			<print new-system="yes"/>
			<note>
				<rest/>
				<duration>8</duration>
				<voice>1</voice>
				<type>half</type>
			</note>
			<note>
				<pitch>
					<step>D</step>
					<octave>4</octave>
				</pitch>
				<duration>4</duration>
				<voice>1</voice>
				<type>quarter</type>
				<stem>up</stem>
			</note>
			<note>
				<rest/>
				<duration>4</duration>
				<voice>1</voice>
				<type>quarter</type>
			</note>
			<barline location="right">
			</barline>
		</measure>
		<measure number="11">
			<print new-system="yes"/>
			<note>
				<grace/>
				<pitch>
					<step>G</step>
					<octave>3</octave>
				</pitch>
				<voice>1</voice>
				<type>quarter</type>
				<stem>up</stem>
			</note>
			<note>
				<rest/>
				<duration>8</duration>
				<voice>1</voice>
				<type>half</type>
			</note>
			<note>
				<pitch>
					<step>D</step>
					<octave>4</octave>
				</pitch>
				<duration>4</duration>
				<voice>1</voice>
				<type>quarter</type>
				<stem>up</stem>
			</note>
			<note>
				<pitch>
					<step>D</step>
					<octave>4</octave>
				</pitch>
				<duration>4</duration>
				<voice>1</voice>
				<type>quarter</type>
				<stem>down</stem>
			</note>
			<barline location="right">
			</barline>
		</measure>
		<measure number="12">
			<print new-system="yes"/>
			<note>
				<pitch>
					<step>A</step>
					<alter>2</alter>
					<octave>3</octave>
				</pitch>
				<duration>4</duration>
				<voice>1</voice>
				<type>quarter</type>
				<accidental>double-sharp</accidental>
				<stem>up</stem>
			</note>
			<note>
				<pitch>
					<step>A</step>
					<alter>2</alter>
					<octave>3</octave>
				</pitch>
				<duration>4</duration>
				<voice>1</voice>
				<type>quarter</type>
				<stem>up</stem>
			</note>
			<note>
				<pitch>
					<step>F</step>
					<octave>3</octave>
				</pitch>
				<duration>4</duration>
				<voice>1</voice>
				<type>quarter</type>
				<stem>up</stem>
			</note>
			<note>
				<pitch>
					<step>D</step>
					<octave>4</octave>
				</pitch>
				<duration>4</duration>
				<voice>1</voice>
				<type>quarter</type>
				<stem>up</stem>
			</note>
		</measure>
		<measure number="13">
			<note>
				<pitch>
					<step>F</step>
					<octave>4</octave>
				</pitch>
				<duration>1</duration>
				<voice>1</voice>
				<type>16th</type>
				<stem>down</stem>
			</note>
			<note>
				<rest/>
				<duration>1</duration>
				<voice>1</voice>
				<type>16th</type>
			</note>
			<note>
				<rest/>
				<duration>2</duration>
				<voice>1</voice>
				<type>eighth</type>
			</note>
			<note>
				<rest/>
				<duration>4</duration>
				<voice>1</voice>
				<type>quarter</type>
			</note>
			<note>
				<rest/>
				<duration>4</duration>
				<voice>1</voice>
				<type>quarter</type>
			</note>
			<note>
				<rest/>
				<duration>4</duration>
				<voice>1</voice>
				<type>quarter</type>
			</note>
		</measure>
		<measure number="14">
			<note>
				<pitch>
					<step>D</step>
					<octave>4</octave>
				</pitch>
				<duration>4</duration>
				<voice>1</voice>
				<type>quarter</type>
				<stem>down</stem>
			</note>
			<note>
				<rest/>
				<duration>4</duration>
				<voice>1</voice>
				<type>quarter</type>
			</note>
			<note>
				<pitch>
					<step>C</step>
					<octave>4</octave>
				</pitch>
				<duration>4</duration>
				<voice>1</voice>
				<type>quarter</type>
				<stem>down</stem>
			</note>
			<note>
				<pitch>
					<step>C</step>
					<octave>4</octave>
				</pitch>
				<duration>4</duration>
				<voice>1</voice>
				<type>quarter</type>
				<stem>down</stem>
			</note>
			<barline location="right">
			</barline>
		</measure>
		<measure number="15">
			<print new-system="yes"/>
			<note>
				<pitch>
					<step>D</step>
					<octave>4</octave>
				</pitch>
				<duration>4</duration>
				<voice>1</voice>
				<type>quarter</type>
				<stem>down</stem>
			</note>
			<note>
				<pitch>
					<step>B</step>
					<octave>3</octave>
				</pitch>
				<duration>4</duration>
				<voice>1</voice>
				<type>quarter</type>
				<stem>up</stem>
			</note>
			<note>
				<pitch>
					<step>C</step>
					<octave>4</octave>
				</pitch>
				<duration>4</duration>
				<voice>1</voice>
				<type>quarter</type>
				<stem>down</stem>
			</note>
			<note>
				<pitch>
					<step>C</step>
					<octave>4</octave>
				</pitch>
				<duration>4</duration>
				<voice>1</voice>
				<type>quarter</type>
				<stem>down</stem>
			</note>
			<barline location="right">
			</barline>
		</measure>
		<measure number="16">
			<note>
				<pitch>
					<step>A</step>
					<octave>3</octave>
				</pitch>
				<duration>4</duration>
				<voice>1</voice>
				<type>quarter</type>
				<stem>up</stem>
			</note>
			<note>
				<pitch>
					<step>B</step>
					<octave>3</octave>
				</pitch>
				<duration>4</duration>
				<voice>1</voice>
				<type>quarter</type>
				<stem>up</stem>
			</note>
			<note>
				<pitch>
					<step>A</step>
					<octave>3</octave>
				</pitch>
				<duration>6</duration>
				<voice>1</voice>
				<type>quarter</type>
				<dot/>
				<stem>up</stem>
			</note>
			<note>
				<rest/>
				<duration>2</duration>
				<voice>1</voice>
				<type>eighth</type>
			</note>
			<barline location="right">
				<bar-style>light-light</bar-style>
			</barline>
		</measure>
	</part>
	<part id="P4">
		<measure number="1">
			<note>
				<rest/>
				<duration>16</duration>
				<type>whole</type>
			</note>
			<barline location="right">
			</barline>
		</measure>
		<measure number="2">
			<print new-system="yes"/>
			<attributes>
				<divisions>4</divisions>
				<clef>
					<sign>F</sign>
					<line>4</line>
				</clef>
			</attributes>
			<note>
				<rest/>
				<duration>8</duration>
				<voice>1</voice>
				<type>half</type>
			</note>
			<note>
				<rest/>
				<duration>8</duration>
				<voice>1</voice>
				<type>half</type>
			</note>
			<note>
				<grace/>
				<pitch>
					<step>G</step>
					<octave>2</octave>
				</pitch>
				<voice>1</voice>
				<type>quarter</type>
				<stem>up</stem>
			</note>
			<barline location="right">
			</barline>
		</measure>
		<measure number="3">
			<print new-system="yes"/>
			<note>
				<pitch>
					<step>B</step>
					<octave>2</octave>
				</pitch>
				<duration>4</duration>
				<voice>1</voice>
				<type>quarter</type>
				<stem>down</stem>
			</note>
			<note>
				<rest/>
				<duration>8</duration>
				<voice>1</voice>
				<type>half</type>
			</note>
			<note>
				<rest/>
				<duration>1</duration>
				<voice>1</voice>
				<type>16th</type>
			</note>
			<note>
				<rest/>
				<duration>1</duration>
				<voice>1</voice>
				<type>16th</type>
			</note>
			<note>
				<rest/>
				<duration>2</duration>
				<voice>1</voice>
				<type>eighth</type>
			</note>
			<barline location="right">
			</barline>
		</measure>
		<measure number="4">
			<print new-system="yes"/>
			<note>
				<pitch>
					<step>E</step>
					<octave>3</octave>
				</pitch>
				<duration>16</duration>
				<voice>1</voice>
				<type>whole</type>
				<stem>up</stem>
			</note>
			<barline location="right">
			</barline>
		</measure>
		<measure number="5">
			<print new-system="yes"/>
			<note>
				<rest/>
				<duration>2</duration>
				<voice>2</voice>
				<type>eighth</type>
			</note>
			<backup>
				<duration>2</duration>
			</backup>
			<note>
				<rest/>
				<duration>4</duration>
				<voice>1</voice>
				<type>quarter</type>
			</note>
			<note>
				<rest/>
				<duration>4</duration>
				<voice>1</voice>
				<type>quarter</type>
			</note>
			<note>
				<rest/>
				<duration>4</duration>
				<voice>1</voice>
				<type>quarter</type>
			</note>
			<note>
				<rest/>
				<duration>4</duration>
				<voice>1</voice>
				<type>quarter</type>
			</note>
			<barline location="right">
			</barline>
		</measure>
		<measure number="6">
			<print new-system="yes"/>
			<note>
				<rest/>
				<duration>4</duration>
				<voice>1</voice>
				<type>quarter</type>
			</note>
			<note>
				<rest/>
				<duration>4</duration>
				<voice>1</voice>
				<type>quarter</type>
			</note>
			<note>
				<rest/>
				<duration>4</duration>
				<voice>1</voice>
				<type>quarter</type>
			</note>
			<note>
				<rest/>
				<duration>4</duration>
				<voice>1</voice>
				<type>quarter</type>
			</note>
			<barline location="right">
			</barline>
		</measure>
		<measure number="7">
			<print new-system="yes"/>
			<note>
				<rest/>
				<duration>16</duration>
				<voice>1</voice>
				<type>whole</type>
			</note>
			<barline location="right">
			</barline>
		</measure>
		<measure number="8">
			<print new-system="yes"/>
			<note>
				<pitch>
					<step>E</step>
					<octave>3</octave>
				</pitch>
				<duration>16</duration>
				<voice>1</voice>
				<type>whole</type>
				<stem>up</stem>
			</note>
			<barline location="right">
			</barline>
		</measure>
		<measure number="9">
			<print new-system="yes"/>
			<note>
				<rest/>
				<duration>8</duration>
				<voice>1</voice>
				<type>half</type>
			</note>
			<note>
				<rest/>
				<duration>4</duration>
				<voice>1</voice>
				<type>quarter</type>
			</note>
			<note>
				<rest/>
				<duration>4</duration>
				<voice>1</voice>
				<type>quarter</type>
			</note>
			<barline location="right">
			</barline>
		</measure>
		<measure number="10">
			<print new-system="yes"/>
			<note>
				<pitch>
					<step>D</step>
					<octave>3</octave>
				</pitch>
				<duration>4</duration>
				<voice>1</voice>
				<type>quarter</type>
				<stem>down</stem>
			</note>
			<note>
				<pitch>
					<step>D</step>
					<octave>3</octave>
				</pitch>
				<duration>4</duration>
				<voice>1</voice>
				<type>quarter</type>
				<stem>up</stem>
			</note>
			<note>
				<pitch>
					<step>D</step>
					<octave>3</octave>
				</pitch>
				<duration>4</duration>
				<voice>1</voice>
				<type>quarter</type>
				<stem>down</stem>
			</note>
			<note>
				<pitch>
					<step>E</step>
					<octave>3</octave>
				</pitch>
				<duration>4</duration>
				<voice>1</voice>
				<type>quarter</type>
				<stem>down</stem>
			</note>
			<barline location="right">
			</barline>
		</measure>
		<measure number="11">
			<print new-system="yes"/>
			<note>
				<rest/>
				<duration>16</duration>
				<voice>1</voice>
				<type>whole</type>
			</note>
			<barline location="right">
			</barline>
		</measure>
		<measure number="12">
			<print new-system="yes"/>
			<note>
				<pitch>
					<step>C</step>
					<octave>3</octave>
				</pitch>
				<duration>16</duration>
				<voice>1</voice>
				<type>whole</type>
				<stem>up</stem>
			</note>
		</measure>
		<measure number="13">
			<note>
				<rest/>
				<duration>4</duration>
				<voice>1</voice>
				<type>quarter</type>
			</note>
			<note>
				<rest/>
				<duration>4</duration>
				<voice>1</voice>
				<type>quarter</type>
			</note>
			<note>
				<rest/>
				<duration>4</duration>
				<voice>1</voice>
				<type>quarter</type>
			</note>
			<note>
				<rest/>
				<duration>4</duration>
				<voice>1</voice>
				<type>quarter</type>
			</note>
		</measure>
		<measure number="14">
			<note>
				<pitch>
					<step>B</step>
					<alter>2</alter>
					<octave>2</octave>
				</pitch>
				<duration>6</duration>
				<voice>1</voice>
				<type>quarter</type>
				<dot/>
				<accidental>double-sharp</accidental>
				<stem>up</stem>
			</note>
			<note>
				<pitch>
					<step>E</step>
					<octave>3</octave>
				</pitch>
				<duration>4</duration>
				<voice>1</voice>
				<type>quarter</type>
				<stem>down</stem>
			</note>
			<note>
				<rest/>
				<duration>2</duration>
				<voice>1</voice>
				<type>eighth</type>
			</note>
			<note>
				<rest/>
				<duration>4</duration>
				<voice>1</voice>
				<type>quarter</type>
			</note>
			<barline location="right">
			</barline>
		</measure>
		<measure number="15">
			<print new-system="yes"/>
			<note>
				<pitch>
					<step>B</step>
					<alter>2</alter>
					<octave>2</octave>
				</pitch>
				<duration>6</duration>
				<voice>1</voice>
				<type>quarter</type>
				<dot/>
				<stem>up</stem>
			</note>
			<note>
				<rest/>
				<duration>4</duration>
				<voice>1</voice>
				<type>quarter</type>
			</note>
			<note>
				<pitch>
					<step>E</step>
					<octave>3</octave>
				</pitch>
				<duration>4</duration>
				<voice>1</voice>
				<type>quarter</type>
				<stem>down</stem>
			</note>
			<note>
				<rest/>
				<duration>2</duration>
				<voice>1</voice>
				<type>eighth</type>
			</note>
			<barline location="right">
			</barline>
		</measure>
		<measure number="16">
			<note>
				<pitch>
					<step>B</step>
					<alter>2</alter>
					<octave>2</octave>
				</pitch>
				<duration>4</duration>
				<voice>1</voice>
				<type>quarter</type>
				<stem>up</stem>
			</note>
			<note>
				<pitch>
					<step>E</step>
					<octave>3</octave>
				</pitch>
				<duration>4</duration>
				<voice>1</voice>
				<type>quarter</type>
				<stem>down</stem>
			</note>
			<note>
				<rest/>
				<duration>8</duration>
				<voice>1</voice>
				<type>half</type>
			</note>
			<barline location="right">
				<bar-style>light-light</bar-style>
			</barline>
		</measure>
	</part>
</score-partwise>
